<svg xmlns="http://www.w3.org/2000/svg" width="1792" height="1792" viewBox="0 0 1792 1792"><path d="m 185.54626,736.05833 545.08951,581.83707 -262.48291,-581.83707 -282.6066,0 z M 896,1411.5144 l 305.3552,-675.45606 -610.71032,0 z M 470.77769,624.06562 649.26607,288.08749 l -229.23508,0 -251.98359,335.97814 302.73029,0 z m 590.58651,693.82978 545.0896,-581.83707 -282.6066,0 z m -463.71977,-693.82978 596.71117,0 -178.4884,-335.97813 -239.73439,0 z m 723.57787,0 302.7303,0 -251.9836,-335.97813 -229.235,0 z m 123.367,-425.22232 335.9781,447.97084 q 12.2492,15.74897 11.3743,36.31014 -0.8749,20.56116 -14.874,35.43519 L 937.12233,1614.5011 Q 921.37335,1632 896,1632 q -25.37334,0 -41.12232,-17.4989 L 14.932359,718.55947 Q 0.93327916,703.68544 0.05832916,683.12428 -0.81661084,662.56311 11.432589,646.81414 L 347.41072,198.8433 q 15.74897,-22.74851 44.62209,-22.74851 l 1007.93439,0 q 28.8731,0 44.6221,22.74851 z"/></svg>